<svg width="44.000000" height="44.000000" viewBox="0 0 44 44" fill="none" xmlns="http://www.w3.org/2000/svg" xmlns:xlink="http://www.w3.org/1999/xlink">
	<defs/>
	<path id="community" d="M0 22C0 9.84 9.84 0 22 0C34.15 0 44 9.84 44 22C44 34.15 34.15 44 22 44C9.84 44 0 34.15 0 22ZM41.25 22C41.25 11.38 32.61 2.75 22 2.75C11.38 2.75 2.75 11.38 2.75 22C2.75 24.6 3.8 28.03 4.04 28.82L4.06 28.9C5.39 26.21 7.69 24.07 10.5 22.92C9.12 21.67 8.25 19.88 8.25 17.87C8.25 8.76 22 8.59 22 17.87C22 19.88 21.11 21.69 19.73 22.94C20.88 23.43 21.97 24.06 22.92 24.84C23.86 24.01 24.93 23.33 26.11 22.84C25.27 21.87 24.75 20.63 24.75 19.25C24.75 11.68 35.75 12.03 35.75 19.25C35.75 20.62 35.22 21.87 34.39 22.84C36.92 23.89 38.98 25.84 40.16 28.31C40.85 26.33 41.25 24.21 41.25 22ZM19.25 17.87C19.25 23.28 11 23.37 11 17.87C11 12.37 19.25 12.2 19.25 17.87ZM24.4 34.37C24.4 23.2 8.33 21.48 6.01 32.7C9.35 37.68 14.96 41 21.34 41.21C23.21 39.51 24.4 37.09 24.4 34.37Z" fill="#D9F5F0" fill-opacity="1.000000" fill-rule="evenodd"/>
</svg>
