<svg width="44.000000" height="44.000000" viewBox="0 0 44 44" fill="none" xmlns="http://www.w3.org/2000/svg" xmlns:xlink="http://www.w3.org/1999/xlink">
	<desc>
			Created with Pixso.
	</desc>
	<defs/>
	<rect id="Icon-cog" width="44.000000" height="44.000000" fill="#FFFFFF" fill-opacity="0"/>
	<path id="cog" d="M38.75 24.13C38.95 22.79 38.71 20.75 38.59 19.82L42.75 17.06C43.9 16.26 44.27 14.73 43.6 13.5L40.54 8.09C39.86 6.82 38.33 6.3 37.01 6.87L32.61 8.89C31.5 7.99 29.67 7 28.33 6.48L27.75 2.37C27.56 1.01 26.39 0 25.02 0L19 0C17.62 0 16.46 1.02 16.27 2.37L15.71 6.4C14.12 7.06 12.54 8.04 11.39 8.9L7.09 6.82C5.83 6.33 4.48 6.44 3.79 7.61L0.37 12.85C-0.31 14.01 -0.05 15.47 0.97 16.34L5.3 19.8C5.16 20.8 5.04 22.82 5.24 24.17L1.17 26.97C0.01 27.78 -0.34 29.35 0.36 30.58L3.7 36.12C4.4 37.35 5.93 37.84 7.23 37.27L11.39 35.06C12.52 35.94 14.35 37.05 15.7 37.58L16.19 41.55C16.36 42.93 17.52 43.97 18.92 43.98L25.12 44C26.52 44 27.7 42.96 27.86 41.57L28.32 37.54C29.92 36.9 31.51 36.05 32.65 35.16L37.18 37.02C38.5 37.64 40.08 37.12 40.78 35.84L43.66 30.68C44.32 29.47 43.98 27.97 42.86 27.16L38.75 24.13ZM22.02 29.49C13.11 29.49 12.53 15.75 22.02 15.75C31.36 15.75 30.93 29.49 22.02 29.49Z" fill="#D9F5F0" fill-opacity="1.000000" fill-rule="evenodd"/>
</svg>
